<?xml version="1.0" encoding="UTF-8" standalone="no"?>
<!-- Generator: Adobe Illustrator 24.1.2, SVG Export Plug-In . SVG Version: 6.00 Build 0)  -->

<svg
   version="1.1"
   id="Capa_1"
   x="0px"
   y="0px"
   viewBox="0 0 107584 2916"
   xml:space="preserve"
   sodipodi:docname="logo.svg"
   width="107584"
   height="2916"
   xmlns:inkscape="http://www.inkscape.org/namespaces/inkscape"
   xmlns:sodipodi="http://sodipodi.sourceforge.net/DTD/sodipodi-0.dtd"
   xmlns="http://www.w3.org/2000/svg"
   xmlns:svg="http://www.w3.org/2000/svg"><defs
   id="defs1389" /><sodipodi:namedview
   id="namedview1387"
   pagecolor="#ffffff"
   bordercolor="#000000"
   borderopacity="0.25"
   inkscape:showpageshadow="2"
   inkscape:pageopacity="0.0"
   inkscape:pagecheckerboard="0"
   inkscape:deskcolor="#d1d1d1"
   showgrid="false" />
<style
   type="text/css"
   id="style1356">
	.st0{enable-background:new    ;}
	.st1{fill:#FFFFFF;}
</style>
<g
   class="st0"
   id="g1370">
	<path
   class="st1"
   d="M 21,45 V 13.9 h 9 c 1.8,0 3.3,0.2 4.6,0.5 1.3,0.4 2.4,0.9 3.2,1.6 0.9,0.7 1.5,1.5 1.9,2.5 0.4,1 0.6,2.1 0.6,3.3 0,0.8 -0.1,1.6 -0.4,2.4 -0.3,0.8 -0.7,1.5 -1.2,2.1 -0.5,0.6 -1.2,1.2 -2,1.7 -0.8,0.5 -1.7,0.8 -2.7,1 2.4,0.4 4.3,1.2 5.7,2.4 1.4,1.2 2,2.9 2,5 0,1.3 -0.2,2.5 -0.7,3.6 -0.5,1.1 -1.2,2 -2,2.7 -0.8,0.7 -2,1.3 -3.3,1.7 -1.3,0.4 -2.8,0.6 -4.4,0.6 H 21 Z M 23.2,28.4 H 30 c 1.4,0 2.7,-0.2 3.7,-0.5 1,-0.4 1.9,-0.9 2.5,-1.5 0.7,-0.6 1.1,-1.3 1.4,-2 0.3,-0.8 0.5,-1.5 0.5,-2.4 0,-2.1 -0.7,-3.7 -2,-4.8 -1.3,-1.1 -3.4,-1.6 -6.1,-1.6 h -6.7 v 12.8 z m 0,1.7 V 43.2 H 31 c 2.7,0 4.8,-0.6 6.2,-1.8 1.4,-1.2 2.1,-2.8 2.1,-5 0,-1 -0.2,-1.9 -0.6,-2.7 -0.4,-0.8 -0.9,-1.5 -1.6,-2 -0.7,-0.5 -1.6,-1 -2.6,-1.3 C 33.5,30.1 32.3,30 31,30 h -7.8 z"
   id="path1358" />
	<path
   class="st1"
   d="M 52.3,45 H 50 V 13.9 h 2.3 z"
   id="path1360" />
	<path
   class="st1"
   d="m 81,13.9 v 1.9 H 64.6 v 12.6 h 13.6 v 1.8 H 64.6 v 13 H 81 V 45 H 62.4 V 13.9 Z"
   id="path1362" />
	<path
   class="st1"
   d="m 89.9,13.9 c 0.1,0.1 0.2,0.2 0.4,0.3 l 20.2,27 c 0,-0.4 -0.1,-0.9 -0.1,-1.3 v -26 h 2 V 45 h -1.1 c -0.3,0 -0.6,-0.1 -0.8,-0.4 l -20.2,-27 c 0,0.4 0.1,0.9 0.1,1.3 V 45 h -2 V 13.9 h 1.1 c 0.2,0 0.3,0 0.4,0 z"
   id="path1364" />
	<path
   class="st1"
   d="m 140.3,13.9 v 1.9 h -16.4 v 12.6 h 13.6 v 1.8 h -13.6 v 13 h 16.4 V 45 H 121.6 V 13.9 Z"
   id="path1366" />
	<path
   class="st1"
   d="m 162.7,17.7 c -0.1,0.2 -0.3,0.4 -0.6,0.4 -0.2,0 -0.4,-0.1 -0.7,-0.4 -0.3,-0.3 -0.7,-0.6 -1.2,-0.9 -0.5,-0.3 -1.2,-0.6 -1.9,-0.9 -0.8,-0.3 -1.7,-0.4 -2.9,-0.4 -1.1,0 -2.1,0.2 -3,0.5 -0.9,0.3 -1.6,0.8 -2.2,1.3 -0.6,0.6 -1,1.2 -1.3,1.9 -0.3,0.7 -0.5,1.5 -0.5,2.3 0,1.1 0.2,1.9 0.7,2.6 0.4,0.7 1,1.3 1.8,1.8 0.7,0.5 1.6,0.9 2.5,1.2 0.9,0.3 1.9,0.7 2.9,1 1,0.3 1.9,0.7 2.9,1.1 0.9,0.4 1.8,0.9 2.5,1.5 0.7,0.6 1.3,1.3 1.8,2.2 0.4,0.9 0.7,1.9 0.7,3.2 0,1.3 -0.2,2.5 -0.7,3.7 -0.4,1.2 -1.1,2.2 -1.9,3 -0.8,0.9 -1.9,1.5 -3.1,2 -1.2,0.5 -2.6,0.7 -4.2,0.7 -2.1,0 -3.8,-0.4 -5.3,-1.1 -1.5,-0.7 -2.8,-1.7 -3.9,-3 l 0.6,-1 c 0.2,-0.2 0.4,-0.3 0.6,-0.3 0.1,0 0.3,0.1 0.5,0.3 0.2,0.2 0.5,0.4 0.7,0.6 0.3,0.3 0.6,0.5 1.1,0.8 0.5,0.3 0.9,0.6 1.4,0.8 0.5,0.3 1.2,0.5 1.9,0.6 0.7,0.1 1.5,0.3 2.4,0.3 1.2,0 2.3,-0.2 3.3,-0.6 1,-0.4 1.8,-0.9 2.5,-1.5 0.7,-0.6 1.2,-1.4 1.5,-2.3 0.4,-0.9 0.5,-1.8 0.5,-2.8 0,-1.1 -0.2,-2 -0.7,-2.7 -0.4,-0.7 -1,-1.3 -1.8,-1.8 -0.7,-0.5 -1.6,-0.9 -2.5,-1.2 -0.9,-0.3 -1.9,-0.6 -2.9,-0.9 -1,-0.3 -1.9,-0.7 -2.9,-1 -0.9,-0.4 -1.8,-0.9 -2.5,-1.5 -0.7,-0.6 -1.3,-1.3 -1.8,-2.2 -0.4,-0.9 -0.7,-2 -0.7,-3.3 0,-1 0.2,-2 0.6,-3 0.4,-1 1,-1.8 1.7,-2.6 0.8,-0.7 1.7,-1.3 2.8,-1.8 1.1,-0.5 2.4,-0.7 3.8,-0.7 1.6,0 3.1,0.3 4.4,0.8 1.3,0.5 2.5,1.3 3.5,2.4 z"
   id="path1368" />
</g>
<g
   class="st0"
   id="g1384">
	<path
   class="st1"
   d="M 175.3,32.6 V 45 h -5.9 V 13.2 h 9.7 c 2.2,0 4,0.2 5.6,0.7 1.5,0.4 2.8,1.1 3.8,1.9 1,0.8 1.7,1.8 2.2,2.9 0.5,1.1 0.7,2.4 0.7,3.7 0,1.1 -0.2,2.1 -0.5,3 -0.3,0.9 -0.8,1.8 -1.4,2.6 -0.6,0.8 -1.3,1.5 -2.2,2 -0.9,0.6 -1.9,1.1 -3,1.4 0.7,0.4 1.4,1 1.9,1.8 l 8,11.7 h -5.3 c -0.5,0 -1,-0.1 -1.3,-0.3 -0.4,-0.2 -0.7,-0.5 -0.9,-0.9 L 180,33.6 c -0.2,-0.4 -0.5,-0.7 -0.8,-0.8 -0.3,-0.2 -0.7,-0.2 -1.3,-0.2 z m 0,-4.3 h 3.7 c 1.1,0 2.1,-0.1 2.9,-0.4 0.8,-0.3 1.5,-0.7 2,-1.2 0.5,-0.5 0.9,-1.1 1.2,-1.7 0.3,-0.7 0.4,-1.4 0.4,-2.2 0,-1.6 -0.5,-2.9 -1.6,-3.7 -1.1,-0.9 -2.7,-1.3 -4.9,-1.3 h -3.8 v 10.5 z"
   id="path1372" />
	<path
   class="st1"
   d="m 226,45 h -4.6 c -0.5,0 -0.9,-0.1 -1.3,-0.4 -0.4,-0.3 -0.6,-0.6 -0.7,-1 L 217,37.1 h -13.2 l -2.4,6.5 c -0.1,0.3 -0.3,0.6 -0.7,0.9 -0.4,0.3 -0.8,0.4 -1.3,0.4 H 195 l 12.5,-31.8 h 6.1 z M 205.4,33 h 10.1 l -3.9,-10.6 c -0.2,-0.5 -0.4,-1 -0.6,-1.7 -0.2,-0.6 -0.4,-1.3 -0.6,-2.1 -0.2,0.7 -0.4,1.4 -0.6,2.1 -0.2,0.7 -0.4,1.2 -0.6,1.7 z"
   id="path1374" />
	<path
   class="st1"
   d="M 235.9,45 H 230 V 13.2 h 5.9 z"
   id="path1376" />
	<path
   class="st1"
   d="m 265,37.5 c 0.3,0 0.6,0.1 0.8,0.4 l 2.3,2.5 c -1.3,1.6 -2.9,2.8 -4.8,3.7 -1.9,0.9 -4.1,1.3 -6.8,1.3 -2.4,0 -4.5,-0.4 -6.4,-1.2 -1.9,-0.8 -3.5,-1.9 -4.8,-3.4 -1.3,-1.5 -2.4,-3.2 -3.1,-5.1 -0.7,-2 -1.1,-4.2 -1.1,-6.5 0,-2.4 0.4,-4.6 1.2,-6.6 0.8,-2 1.9,-3.7 3.3,-5.1 1.4,-1.4 3.2,-2.6 5.2,-3.4 2,-0.8 4.2,-1.2 6.6,-1.2 2.4,0 4.4,0.4 6.2,1.1 1.8,0.8 3.3,1.8 4.5,3 l -2,2.8 c -0.1,0.2 -0.3,0.3 -0.5,0.5 -0.2,0.1 -0.4,0.2 -0.8,0.2 -0.3,0 -0.7,-0.1 -1,-0.4 -0.4,-0.3 -0.8,-0.6 -1.3,-0.9 -0.5,-0.3 -1.2,-0.6 -2.1,-0.9 -0.8,-0.3 -1.9,-0.4 -3.2,-0.4 -1.5,0 -2.9,0.3 -4.1,0.8 -1.2,0.5 -2.3,1.3 -3.2,2.2 -0.9,1 -1.6,2.1 -2.1,3.5 -0.5,1.4 -0.8,2.9 -0.8,4.7 0,1.8 0.3,3.4 0.8,4.8 0.5,1.4 1.2,2.6 2.1,3.5 0.9,1 1.9,1.7 3.1,2.2 1.2,0.5 2.4,0.8 3.8,0.8 0.8,0 1.5,0 2.2,-0.1 0.7,-0.1 1.3,-0.2 1.8,-0.4 0.5,-0.2 1.1,-0.4 1.6,-0.7 0.5,-0.3 1,-0.7 1.5,-1.1 0.1,-0.1 0.3,-0.2 0.5,-0.3 0.2,-0.3 0.4,-0.3 0.6,-0.3 z"
   id="path1378" />
	<path
   class="st1"
   d="m 292.7,13.2 v 4.7 h -14.1 v 8.8 h 11.1 v 4.6 h -11.1 v 9 h 14.1 V 45 H 272.6 V 13.2 Z"
   id="path1380" />
	<path
   class="st1"
   d="m 314.8,19 c -0.2,0.3 -0.3,0.6 -0.6,0.7 -0.2,0.1 -0.5,0.2 -0.8,0.2 -0.3,0 -0.6,-0.1 -1,-0.3 -0.4,-0.2 -0.8,-0.5 -1.3,-0.8 -0.5,-0.3 -1.1,-0.5 -1.7,-0.8 -0.7,-0.2 -1.5,-0.3 -2.4,-0.3 -0.8,0 -1.5,0.1 -2.1,0.3 -0.6,0.2 -1.1,0.5 -1.5,0.8 -0.4,0.4 -0.7,0.8 -0.9,1.3 -0.2,0.5 -0.3,1 -0.3,1.6 0,0.7 0.2,1.4 0.6,1.9 0.4,0.5 1,0.9 1.7,1.3 0.7,0.4 1.5,0.7 2.4,0.9 0.9,0.2 1.8,0.6 2.7,0.9 0.9,0.3 1.8,0.7 2.7,1.1 0.9,0.4 1.7,0.9 2.4,1.6 0.7,0.6 1.2,1.4 1.7,2.3 0.5,0.9 0.6,2 0.6,3.4 0,1.4 -0.2,2.8 -0.7,4 -0.5,1.2 -1.2,2.3 -2.2,3.3 -0.9,0.9 -2.1,1.7 -3.5,2.2 -1.4,0.5 -2.9,0.8 -4.7,0.8 -1,0 -2,-0.1 -3,-0.3 -1,-0.2 -1.9,-0.5 -2.8,-0.8 -0.9,-0.4 -1.7,-0.8 -2.5,-1.3 -0.8,-0.5 -1.5,-1.1 -2.1,-1.7 l 1.7,-2.8 c 0.2,-0.2 0.4,-0.4 0.6,-0.5 0.2,-0.1 0.5,-0.2 0.8,-0.2 0.4,0 0.8,0.2 1.2,0.5 0.4,0.3 0.9,0.6 1.5,1 0.6,0.4 1.3,0.7 2,1 0.8,0.3 1.7,0.5 2.8,0.5 1.7,0 3,-0.4 3.9,-1.2 0.9,-0.8 1.4,-1.9 1.4,-3.4 0,-0.8 -0.2,-1.5 -0.6,-2 -0.4,-0.5 -1,-1 -1.7,-1.3 -0.7,-0.3 -1.5,-0.7 -2.4,-0.9 -0.9,-0.2 -1.8,-0.5 -2.7,-0.8 -0.9,-0.3 -1.8,-0.6 -2.7,-1.1 -0.9,-0.4 -1.7,-0.9 -2.4,-1.6 -0.7,-0.7 -1.2,-1.5 -1.7,-2.5 -0.5,-1 -0.6,-2.2 -0.6,-3.7 0,-1.2 0.2,-2.3 0.7,-3.4 0.5,-1.1 1.1,-2.1 2,-2.9 0.9,-0.9 2,-1.5 3.3,-2 1.3,-0.5 2.8,-0.8 4.4,-0.8 1.9,0 3.6,0.3 5.2,0.9 1.6,0.6 2.9,1.4 4,2.5 z"
   id="path1382" />
</g>
</svg>
